<?xml version="1.0" encoding="utf-8"?>
<!-- Generator: Adobe Illustrator 22.0.1, SVG Export Plug-In . SVG Version: 6.00 Build 0)  -->
<svg version="1.1" id="Layer_1" xmlns="http://www.w3.org/2000/svg" xmlns:xlink="http://www.w3.org/1999/xlink" x="0px" y="0px"
	 viewBox="0 0 42.6 20.3" style="enable-background:new 0 0 42.6 20.3;" xml:space="preserve">
<style type="text/css">
	.st0{enable-background:new    ;}
	.st1{fill:#4DA9EC;}
	.st2{fill:#F9F9F9;}
	.st3{fill:#9C9C9C;}
</style>
<title>logo</title>
<g id="Layer_2_1_">
	<g id="Layer_1-2">
		<g class="st0">
			<path class="st1" d="M12.9,12.4c-0.2,0.1-0.5,0.2-0.8,0.4s-0.7,0.2-1,0.2c-0.2,0-0.4,0-0.6-0.1c-0.2-0.1-0.4-0.2-0.5-0.3
				c-0.2-0.2-0.3-0.4-0.4-0.6c-0.1-0.2-0.1-0.5-0.1-0.9V6.5H8.6V5h0.8V2.4h1.6V5h1.4v1.5h-1.4v3.8c0,0.3,0.1,0.5,0.2,0.6
				c0.1,0.1,0.3,0.2,0.4,0.2c0.2,0,0.3,0,0.5-0.1c0.2-0.1,0.3-0.1,0.4-0.2L12.9,12.4z"/>
		</g>
		<g class="st0">
			<path class="st2" d="M17.4,13c-0.5,0-0.9-0.1-1.3-0.4c-0.4-0.3-0.7-0.6-0.9-1.1v1.4h-1.4v-11h1.6v4.5c0.2-0.5,0.5-0.9,0.9-1.1
				c0.4-0.3,0.8-0.4,1.3-0.4c0.4,0,0.8,0.1,1.1,0.3c0.3,0.2,0.6,0.5,0.9,0.9c0.2,0.4,0.4,0.8,0.6,1.3c0.1,0.5,0.2,1,0.2,1.6
				c0,0.6-0.1,1.1-0.2,1.6s-0.4,0.9-0.6,1.3c-0.3,0.4-0.6,0.7-1,0.9S17.9,13,17.4,13z M17,11.3c0.3,0,0.5-0.1,0.7-0.2
				c0.2-0.1,0.4-0.3,0.6-0.5s0.3-0.5,0.4-0.7c0.1-0.3,0.1-0.6,0.1-0.9c0-0.3,0-0.6-0.1-0.9s-0.2-0.5-0.4-0.8C18.2,7,18,6.9,17.8,6.7
				s-0.4-0.2-0.7-0.2c-0.4,0-0.7,0.1-1,0.4s-0.5,0.7-0.7,1.1V10c0.1,0.2,0.1,0.4,0.3,0.5c0.1,0.2,0.2,0.3,0.4,0.4
				c0.1,0.1,0.3,0.2,0.5,0.3C16.7,11.2,16.8,11.3,17,11.3z"/>
			<path class="st2" d="M24.6,13c-0.5,0-1-0.1-1.4-0.3c-0.4-0.2-0.8-0.5-1.1-0.9c-0.3-0.4-0.5-0.8-0.7-1.3c-0.2-0.5-0.2-1-0.2-1.5
				c0-0.5,0.1-1.1,0.2-1.6c0.2-0.5,0.4-0.9,0.7-1.3c0.3-0.4,0.6-0.7,1.1-0.9c0.4-0.2,0.9-0.3,1.4-0.3c0.5,0,1,0.1,1.4,0.3
				c0.4,0.2,0.8,0.5,1.1,0.9s0.5,0.8,0.7,1.3c0.2,0.5,0.2,1,0.2,1.6c0,0.5-0.1,1.1-0.2,1.5c-0.2,0.5-0.4,0.9-0.7,1.3
				s-0.6,0.7-1.1,0.9C25.6,12.9,25.1,13,24.6,13z M22.9,8.9c0,0.4,0,0.7,0.1,1c0.1,0.3,0.2,0.5,0.4,0.7c0.2,0.2,0.3,0.4,0.5,0.5
				c0.2,0.1,0.4,0.2,0.7,0.2c0.2,0,0.5-0.1,0.7-0.2c0.2-0.1,0.4-0.3,0.5-0.5c0.2-0.2,0.3-0.5,0.4-0.8c0.1-0.3,0.1-0.6,0.1-1
				c0-0.3,0-0.7-0.1-0.9c-0.1-0.3-0.2-0.5-0.4-0.8c-0.2-0.2-0.3-0.4-0.5-0.5c-0.2-0.1-0.4-0.2-0.7-0.2c-0.2,0-0.5,0.1-0.7,0.2
				S23.5,7,23.4,7.2C23.2,7.4,23.1,7.7,23,8S22.9,8.6,22.9,8.9z"/>
			<path class="st2" d="M32,13c-0.5,0-1-0.1-1.4-0.3c-0.4-0.2-0.8-0.5-1.1-0.9S29,11,28.9,10.5c-0.2-0.5-0.2-1-0.2-1.5
				c0-0.5,0.1-1.1,0.2-1.6c0.2-0.5,0.4-0.9,0.7-1.3s0.6-0.7,1.1-0.9C31,4.9,31.5,4.8,32,4.8c0.5,0,1,0.1,1.4,0.3
				c0.4,0.2,0.8,0.5,1.1,0.9s0.5,0.8,0.7,1.3c0.2,0.5,0.2,1,0.2,1.6c0,0.5-0.1,1.1-0.2,1.5c-0.2,0.5-0.4,0.9-0.7,1.3
				s-0.6,0.7-1.1,0.9C33,12.9,32.5,13,32,13z M30.3,8.9c0,0.4,0,0.7,0.1,1c0.1,0.3,0.2,0.5,0.4,0.7c0.2,0.2,0.3,0.4,0.5,0.5
				c0.2,0.1,0.4,0.2,0.7,0.2s0.5-0.1,0.7-0.2c0.2-0.1,0.4-0.3,0.5-0.5c0.2-0.2,0.3-0.5,0.4-0.8c0.1-0.3,0.1-0.6,0.1-1
				c0-0.3,0-0.7-0.1-0.9c-0.1-0.3-0.2-0.5-0.4-0.8c-0.2-0.2-0.3-0.4-0.5-0.5c-0.2-0.1-0.4-0.2-0.7-0.2s-0.5,0.1-0.7,0.2
				S31,7,30.8,7.2c-0.2,0.2-0.3,0.5-0.4,0.8S30.3,8.6,30.3,8.9z"/>
			<path class="st2" d="M40.9,12.8L39,9.4l-0.9,1.1v2.3h-1.6v-11h1.6v6.6L40.7,5h1.8l-2.4,3.3l2.6,4.5H40.9z"/>
		</g>
		<g class="st0">
			<path class="st3" d="M5.9,9.1c0,0,0,0.1,0,0.1c0,0.1,0,0.1,0,0.2c0,0.1,0,0.1,0,0.2c0,0.1,0,0.1,0,0.2c0,0.1-0.1,0.2-0.1,0.4
				c0,0.1-0.1,0.3-0.1,0.5c-0.1,0.2-0.1,0.3-0.2,0.5c-0.1,0.2-0.1,0.3-0.2,0.4c0,0.1-0.1,0.2-0.2,0.3c-0.1,0.1-0.1,0.2-0.2,0.4
				c-0.1,0.1-0.1,0.2-0.2,0.3c-0.1,0.1-0.1,0.1-0.2,0.1c-0.1,0-0.1,0-0.2-0.1s-0.1-0.1-0.1-0.2c0-0.1-0.1-0.3-0.1-0.5S4,11.4,4,11.1
				c0-0.1,0-0.3,0-0.4s0-0.3,0-0.5c0-0.2,0-0.3,0-0.5c0-0.1,0-0.3,0-0.4c0-0.1,0-0.2,0-0.3c0-0.1,0-0.1,0-0.1c0,0-0.1,0-0.1,0.1
				c0,0.1-0.1,0.2-0.1,0.4c-0.1,0.2-0.1,0.4-0.2,0.6c-0.1,0.3-0.1,0.5-0.2,0.8c-0.1,0.6-0.2,1.1-0.3,1.4c-0.1,0.3-0.2,0.5-0.3,0.5
				c-0.1,0-0.2-0.1-0.2-0.4c0-0.3-0.1-0.8-0.1-1.4c0-0.7,0-1.2-0.1-1.5C2.2,9.2,2.2,9,2.1,9c0,0-0.1,0.1-0.1,0.2
				C2,9.4,1.9,9.6,1.8,9.8c-0.1,0.2-0.1,0.5-0.2,0.9c-0.1,0.3-0.2,0.7-0.3,1.1c0,0.1,0,0.2-0.1,0.4c0,0.1-0.1,0.3-0.1,0.4
				c0,0.1-0.1,0.3-0.1,0.4S1,13.2,1,13.3c0,0.2-0.1,0.3-0.2,0.3c-0.1,0-0.2-0.2-0.2-0.5c0-0.1,0-0.2,0-0.2s0-0.1,0-0.2s0-0.1,0-0.2
				c0-0.1,0-0.1,0-0.3c0-0.2,0-0.3,0-0.5c0-0.1,0-0.3,0-0.4c0-0.1,0-0.3,0-0.5s0-0.4,0-0.6c0-0.2,0-0.4,0-0.6c0-0.2,0-0.4,0-0.6
				c0-0.2,0-0.4,0-0.6s0-0.3,0-0.4c0-0.1,0-0.1,0-0.2c0-0.1,0-0.1,0.1-0.2s0-0.1,0.1-0.2c0,0,0-0.1,0.1-0.1c0,0,0.1,0,0.1,0.1
				c0,0,0,0.1,0.1,0.2c0,0.1,0,0.2,0,0.2c0,0.1,0,0.2,0,0.3c0,0.1,0,0.2,0,0.4c0,0.2,0,0.3,0,0.5c0,0.2,0,0.4,0,0.6
				c0,0.2,0,0.4,0,0.6s0,0.3,0,0.5s0,0.3,0,0.4c0,0.2,0,0.4,0,0.6c0,0.1,0,0.3,0,0.3c0-0.1,0-0.1,0.1-0.3c0-0.1,0.1-0.2,0.1-0.4
				s0.1-0.3,0.1-0.5c0-0.2,0.1-0.4,0.1-0.6c0-0.1,0.1-0.3,0.1-0.5c0-0.2,0.1-0.3,0.1-0.5S1.7,9,1.7,8.8c0-0.2,0.1-0.3,0.1-0.4
				C1.9,8.2,1.9,8.1,2,8c0.1-0.1,0.2-0.2,0.2-0.2c0.1,0,0.1,0.1,0.2,0.2s0.1,0.4,0.1,0.6c0,0.1,0,0.3,0,0.4s0,0.3,0,0.5s0,0.3,0,0.5
				c0,0.2,0,0.3,0,0.5c0,0.2,0,0.3,0,0.4c0,0.1,0,0.2,0,0.2c0,0.1,0,0.1,0,0.1c0,0,0,0,0,0c0,0,0.1-0.2,0.2-0.5
				c0-0.2,0.1-0.4,0.1-0.6c0-0.2,0.1-0.4,0.2-0.7c0.1-0.3,0.1-0.5,0.2-0.7c0.1-0.2,0.1-0.4,0.2-0.6c0.1-0.2,0.1-0.3,0.2-0.4
				c0.1-0.1,0.1-0.2,0.1-0.2c0,0,0.1,0,0.1,0c0,0,0.1,0,0.1,0.1c0,0,0,0.1,0.1,0.1c0,0,0,0.1,0,0.1c0,0.1,0,0.2,0.1,0.4
				c0,0.1,0,0.3,0,0.5c0,0.2,0,0.4,0,0.6c0,0.2,0,0.4,0,0.7c0,0.5,0.1,0.9,0.1,1.2c0,0.3,0.1,0.4,0.2,0.4c0,0,0.1,0,0.1-0.1
				s0.1-0.1,0.2-0.2S5,11.1,5,11c0.1-0.1,0.1-0.2,0.2-0.4c0.1-0.1,0.1-0.2,0.2-0.4c0-0.1,0.1-0.2,0.1-0.4c0-0.1,0.1-0.3,0.2-0.4
				C5.7,9.3,5.8,9.2,5.9,9.1C5.8,9,5.9,8.9,5.9,8.9C5.9,8.9,5.9,9,5.9,9.1z"/>
			<path class="st3" d="M8.1,7.8c0,0.1,0,0.2,0,0.3s0,0.2,0,0.3c0,0.1,0,0.2,0,0.4s0,0.3,0,0.4c0,0.1,0,0.3,0,0.4s0,0.2,0,0.3
				c0,0.6,0,1.2-0.1,1.8c0,0.6-0.1,1.2-0.1,1.8c-0.1,0.9-0.2,1.7-0.4,2.4c-0.2,0.7-0.4,1-0.7,1c-0.2,0-0.4-0.1-0.6-0.3
				c-0.2-0.2-0.4-0.5-0.5-0.8c-0.1-0.3-0.1-0.4-0.1-0.5c0-0.1,0-0.2,0-0.4c0-0.1,0.1-0.2,0.1-0.2c0,0,0,0,0,0.1
				c0.1,0.2,0.1,0.4,0.2,0.5C6.1,15.8,6.3,16,6.7,16c0.1,0,0.3-0.2,0.4-0.5c0.1-0.2,0.1-0.4,0.1-0.5c0-0.2,0.1-0.4,0.1-0.6
				s0.1-0.4,0.1-0.7c0-0.2,0-0.4,0.1-0.7c0-0.2,0-0.4,0-0.5c0-0.1,0-0.2,0-0.3c0-0.2,0-0.4,0-0.5c0-0.2,0-0.3,0-0.5
				c0,0.1-0.1,0.2-0.3,0.4C7.2,11.8,7.1,11.9,7,12s-0.1,0.2-0.2,0.3c-0.1,0.2-0.2,0.3-0.4,0.5C6.3,12.9,6.2,13,6.1,13
				c-0.2,0-0.3-0.2-0.4-0.5c-0.1-0.3-0.1-0.7-0.1-1.1c0-0.3,0-0.6,0-1c0-0.2,0-0.4,0-0.5s0-0.3,0-0.5c0-0.1,0-0.3,0.1-0.5
				c0-0.2,0-0.4,0.1-0.7c0-0.1,0-0.3,0.1-0.4C6,7.7,6,7.6,6,7.5c0-0.1,0.1-0.1,0.1-0.2s0.1-0.1,0.1-0.1c0,0,0.1,0.1,0.1,0.2
				c0,0.1,0,0.3,0,0.4c0,0.1,0,0.2,0,0.2c0,0,0,0.1,0,0.1c0,0.1,0,0.1-0.1,0.2c0,0.1,0,0.2-0.1,0.2s0,0.1,0,0.1c0,0.1,0,0.2,0,0.3
				s0,0.1,0,0.2c0,0.1,0,0.1,0,0.2c0,0.1,0,0.2,0,0.3c0,0.2,0,0.4,0,0.5c0,0.2,0,0.3,0,0.5c0,0.2,0,0.4,0,0.6c0,0.3,0.1,0.4,0.1,0.4
				c0.1,0,0.3-0.1,0.5-0.3c0.2-0.2,0.4-0.5,0.6-0.9c0.2-0.4,0.3-0.7,0.3-1.1c0-0.1,0-0.1,0-0.2c0-0.1,0-0.2,0-0.3c0-0.1,0-0.3,0-0.4
				c0-0.1,0-0.3,0-0.4c0-0.1,0-0.2,0-0.3c0-0.1,0-0.2,0-0.2C7.7,7.2,7.8,7,7.8,7C7.9,7,8,7.1,8,7.2C8,7.4,8.1,7.6,8.1,7.8z"/>
		</g>
	</g>
</g>
</svg>
